<?xml version="1.0" encoding="UTF-8"?>
<svg width="198" height="76.0" version="1.1" viewBox="0 0 198 76.0" xml:space="preserve" xmlns="http://www.w3.org/2000/svg">
<title>DXC Technology logo</title>
<style type="text/css">
	.st0{fill:#8050f8;}
</style>
<g id="vlpa" transform="matrix(2.1292 0 0 2.1292 -.48973 -.8517)">
		<path class="st0" d="m30.98 21.16c-0.21 1.41-0.61 2.79-1.24 4.15-0.92 2.08-2.2 4.08-3.92 5.76-3.24 3.28-8.08 5.36-13.03 5.36h-12.52v-7.2h12.51c2.96 0 5.8-1.12 7.72-3.12 1.39-1.41 2.36-3.13 2.86-4.95zm0-5.49c-0.21-1.41-0.61-2.79-1.24-4.15-0.92-2.08-2.2-4.08-3.92-5.76-3.24-3.28-8.08-5.36-13.04-5.36h-12.51v7.2h12.51c2.96 0 5.8 1.12 7.72 3.12 1.39 1.41 2.36 3.13 2.86 4.95zm15.71 8.73-9.56 12.03h-9.48l14.31-18.01-14.3-18.02h9.48l9.56 12.02 9.55-12.02h9.48l-14.32 18.02 14.31 18.01h-9.48zm23.33-3.24c0.5 1.82 1.47 3.54 2.86 4.95 1.92 2 4.76 3.12 7.72 3.12h12.51v7.2h-12.51c-4.96 0-9.8-2.08-13.03-5.36-1.72-1.68-3-3.68-3.92-5.76-0.63-1.36-1.03-2.74-1.24-4.15zm0-5.49c0.5-1.82 1.47-3.54 2.86-4.95 1.92-2 4.76-3.12 7.72-3.12h12.51v-7.2h-12.51c-4.96 0-9.8 2.08-13.03 5.36-1.72 1.68-3 3.68-3.92 5.76-0.63 1.36-1.03 2.74-1.24 4.15z"/>
</g>
</svg>
