<svg xmlns="http://www.w3.org/2000/svg" width="326.1700119018555" height="72.96667515962805" viewBox="0 0 369.66666666666663 82.6972026849772" class="looka-1j8o68f">

<defs id="SvgjsDefs3165"></defs>
<g id="SvgjsG3166" featurekey="symbolFeature-0" transform="matrix(1.0602204435402198,0,0,1.0602204435402198,-11.87446876542946,-11.662424878942417)" fill="#8040e8">

<path xmlns="http://www.w3.org/2000/svg" d="M29.5,25.5c2.5,0,4.6-2.1,4.6-4.6s-2.1-4.6-4.6-4.6c-2.5,0-4.6,2.1-4.6,4.6S27,25.5,29.5,25.5z M27,58  c0,0.7,0.6,1.3,1.3,1.3c0.7,0,1.3-0.6,1.3-1.3s-0.6-1.3-1.3-1.3C27.6,56.7,27,57.3,27,58z M36.2,31.3c1.1,0,1.9-0.9,1.9-1.9  c0-1.1-0.9-1.9-1.9-1.9c-1.1,0-1.9,0.9-1.9,1.9C34.3,30.4,35.1,31.3,36.2,31.3z M21.1,48.6c2.5,0,4.6-2.1,4.6-4.6  c0-2.5-2.1-4.6-4.6-4.6s-4.6,2.1-4.6,4.6C16.6,46.5,18.6,48.6,21.1,48.6z M14.5,37.8c1.1,0,1.9-0.9,1.9-1.9c0-1.1-0.9-1.9-1.9-1.9  c-1.1,0-1.9,0.9-1.9,1.9C12.6,37,13.4,37.8,14.5,37.8z M13.8,42c0-0.7-0.6-1.3-1.3-1.3c-0.7,0-1.3,0.6-1.3,1.3s0.6,1.3,1.3,1.3  C13.2,43.3,13.8,42.7,13.8,42z M19.9,31.2c1.8,0,3.2-1.4,3.2-3.2s-1.4-3.2-3.2-3.2c-1.8,0-3.2,1.4-3.2,3.2S18.1,31.2,19.9,31.2z   M58.8,13.6c0.7,0,1.3-0.6,1.3-1.3c0-0.7-0.6-1.3-1.3-1.3c-0.7,0-1.3,0.6-1.3,1.3C57.5,13,58.1,13.6,58.8,13.6z M23.8,57.5  c0-3.1-2.5-5.6-5.6-5.6c-3.1,0-5.6,2.5-5.6,5.6s2.5,5.6,5.6,5.6C21.3,63.1,23.8,60.6,23.8,57.5z M79.9,33.9c2.5,0,4.6-2.1,4.6-4.6  s-2.1-4.6-4.6-4.6s-4.6,2.1-4.6,4.6S77.3,33.9,79.9,33.9z M69.6,65.5c0,1.8,1.4,3.2,3.2,3.2c1.8,0,3.2-1.4,3.2-3.2s-1.4-3.2-3.2-3.2  C71,62.3,69.6,63.7,69.6,65.5z M72.8,22.9c1.8,0,3.2-1.4,3.2-3.2c0-1.8-1.4-3.2-3.2-3.2c-1.8,0-3.2,1.4-3.2,3.2  C69.6,21.5,71,22.9,72.8,22.9z M65.7,31.2c1.8,0,3.2-1.4,3.2-3.2s-1.4-3.2-3.2-3.2c-1.8,0-3.2,1.4-3.2,3.2S63.9,31.2,65.7,31.2z   M77.2,42.5c0,3.1,2.5,5.6,5.6,5.6c3.1,0,5.6-2.5,5.6-5.6s-2.5-5.6-5.6-5.6C79.7,36.9,77.2,39.4,77.2,42.5z M74,42  c0-0.7-0.6-1.3-1.3-1.3c-0.7,0-1.3,0.6-1.3,1.3s0.6,1.3,1.3,1.3C73.4,43.3,74,42.7,74,42z M64.8,16.1c1.1,0,1.9-0.9,1.9-1.9  s-0.9-1.9-1.9-1.9c-1.1,0-1.9,0.9-1.9,1.9S63.8,16.1,64.8,16.1z M70.8,37.8c1.1,0,1.9-0.9,1.9-1.9c0-1.1-0.9-1.9-1.9-1.9  s-1.9,0.9-1.9,1.9C68.9,37,69.8,37.8,70.8,37.8z M31.4,34.5c0-1.8-1.4-3.2-3.2-3.2c-1.8,0-3.2,1.4-3.2,3.2s1.4,3.2,3.2,3.2  C30,37.7,31.4,36.3,31.4,34.5z M64.8,68.7c-1.1,0-1.9,0.9-1.9,1.9c0,1.1,0.9,1.9,1.9,1.9c1.1,0,1.9-0.9,1.9-1.9  C66.7,69.6,65.9,68.7,64.8,68.7z M58.3,76.4c-3.1,0-5.6,2.5-5.6,5.6s2.5,5.6,5.6,5.6c3.1,0,5.6-2.5,5.6-5.6S61.4,76.4,58.3,76.4z   M71.5,74.5c-2.5,0-4.6,2.1-4.6,4.6s2.1,4.6,4.6,4.6c2.5,0,4.6-2.1,4.6-4.6S74,74.5,71.5,74.5z M57.5,72.5c0,0.7,0.6,1.3,1.3,1.3  c0.7,0,1.3-0.6,1.3-1.3c0-0.7-0.6-1.3-1.3-1.3C58.1,71.3,57.5,71.8,57.5,72.5z M88.5,56.7c-0.7,0-1.3,0.6-1.3,1.3s0.6,1.3,1.3,1.3  c0.7,0,1.3-0.6,1.3-1.3S89.1,56.7,88.5,56.7z M86.5,62.2c-1.1,0-1.9,0.9-1.9,1.9c0,1.1,0.9,1.9,1.9,1.9c1.1,0,1.9-0.9,1.9-1.9  C88.4,63,87.6,62.2,86.5,62.2z M56.2,25.5c2.5,0,4.6-2.1,4.6-4.6s-2.1-4.6-4.6-4.6s-4.6,2.1-4.6,4.6S53.7,25.5,56.2,25.5z   M79.9,51.4c-2.5,0-4.6,2.1-4.6,4.6c0,2.5,2.1,4.6,4.6,4.6s4.6-2.1,4.6-4.6C84.4,53.5,82.4,51.4,79.9,51.4z M21.1,66.1  c-2.5,0-4.6,2.1-4.6,4.6s2.1,4.6,4.6,4.6s4.6-2.1,4.6-4.6S23.7,66.1,21.1,66.1z M81.1,68.8c-1.8,0-3.2,1.4-3.2,3.2s1.4,3.2,3.2,3.2  c1.8,0,3.2-1.4,3.2-3.2S82.9,68.8,81.1,68.8z M30.2,62.2c-1.1,0-1.9,0.9-1.9,1.9c0,1.1,0.9,1.9,1.9,1.9s1.9-0.9,1.9-1.9  C32.1,63,31.2,62.2,30.2,62.2z M35.3,68.8c-1.8,0-3.2,1.4-3.2,3.2s1.4,3.2,3.2,3.2c1.8,0,3.2-1.4,3.2-3.2S37.1,68.8,35.3,68.8z   M36.2,83.9c-1.1,0-1.9,0.9-1.9,1.9s0.9,1.9,1.9,1.9c1.1,0,1.9-0.9,1.9-1.9S37.2,83.9,36.2,83.9z M28.2,77.1c-1.8,0-3.2,1.4-3.2,3.2  c0,1.8,1.4,3.2,3.2,3.2c1.8,0,3.2-1.4,3.2-3.2C31.4,78.5,30,77.1,28.2,77.1z M41,27.5c0,0.7,0.6,1.3,1.3,1.3c0.7,0,1.3-0.6,1.3-1.3  c0-0.7-0.6-1.3-1.3-1.3C41.5,26.2,41,26.8,41,27.5z M48.3,17.9c0-3.1-2.5-5.6-5.6-5.6c-3.1,0-5.6,2.5-5.6,5.6s2.5,5.6,5.6,5.6  C45.8,23.6,48.3,21.1,48.3,17.9z M42.2,86.4c-0.7,0-1.3,0.6-1.3,1.3c0,0.7,0.6,1.3,1.3,1.3c0.7,0,1.3-0.6,1.3-1.3  C43.5,87,42.9,86.4,42.2,86.4z M44.8,74.5c-2.5,0-4.6,2.1-4.6,4.6s2.1,4.6,4.6,4.6s4.6-2.1,4.6-4.6S47.3,74.5,44.8,74.5z">
</path>
</g>

<g id="SvgjsG3167" featurekey="nameFeature-0" transform="matrix(1.7539244833088836,0,0,1.7539244833088836,101.03560394307841,-10.608349099110171)" fill="#8040e8">
<path d="M12.2 24.32 c-3.2 0 -5.6 2.44 -5.6 5.52 c0 3.04 2.48 5.52 5.6 5.52 c3.04 0 5.4 -2.48 5.4 -5.52 c0 -3.08 -2.36 -5.52 -5.4 -5.52 z M12.68 40.28 c-2.32 0 -4.56 -0.72 -6 -1.84 l0 8.6 l-5.56 0 l0 -27.56 l5.56 0 l0 1.6 c1.44 -1.12 3.68 -1.8 6 -1.8 c5.6 0 10.36 4.52 10.36 10.44 s-4.76 10.56 -10.36 10.56 z M30.48 17.72 l-5.56 0 l0 -5.12 l5.56 0 l0 5.12 z M30.48 40 l-5.56 0 l0 -20.52 l5.56 0 l0 20.52 z M45.64 29.48 l6.68 10.52 l-6.64 0 l-3.6 -6.2 l-3.64 6.2 l-6.48 0 l6.6 -10.44 l-6.44 -10.08 l6.6 0 l3.44 5.84 l3.4 -5.84 l6.48 0 z M64.44000000000001 19.08 c6.32 0 11.04 4.72 11.04 10.72 c0 5.96 -4.72 10.68 -11.04 10.68 s-11 -4.68 -11 -10.68 c0 -5.96 4.72 -10.72 11 -10.72 z M64.44000000000001 24.119999999999997 c-3.12 0 -5.52 2.4 -5.52 5.68 s2.28 5.72 5.4 5.72 s5.64 -2.44 5.64 -5.72 s-2.4 -5.68 -5.52 -5.68 z M90.36000000000001 16.88 l-1.92 0 c-1.8 0 -2.72 0.68 -2.72 2.4 l0 0.2 l4.64 0 l0 4.96 l-4.64 0 l0 15.56 l-5.56 0 l0 -15.56 l-3.2 0 l0 -4.96 l3.2 0 l0 -0.24 c0 -4.4 2.72 -6.92 8.04 -6.92 l2.16 0 l0 4.56 z M97.88000000000001 40 l-5.6 0 l0 -27.4 l5.6 0 l0 27.4 z M110.76000000000002 19.08 c6.32 0 11.04 4.72 11.04 10.72 c0 5.96 -4.72 10.68 -11.04 10.68 s-11 -4.68 -11 -10.68 c0 -5.96 4.72 -10.72 11 -10.72 z M110.76000000000002 24.119999999999997 c-3.12 0 -5.52 2.4 -5.52 5.68 s2.28 5.72 5.4 5.72 s5.64 -2.44 5.64 -5.72 s-2.4 -5.68 -5.52 -5.68 z M140.76000000000002 40 l-2.8 -11.72 l-2.8 11.72 l-7.04 0 l-5.24 -20.52 l5.6 0 l3.36 14.12 l3.48 -14.12 l5.6 0 l3.44 14.2 l3.4 -14.2 l5.4 0 l-5.28 20.52 l-7.12 0 z">
</path>
</g>
</svg>
